<?xml version="1.0" encoding="utf-8"?>
<!-- Generator: Adobe Illustrator 16.0.0, SVG Export Plug-In . SVG Version: 6.00 Build 0)  -->
<!DOCTYPE svg PUBLIC "-//W3C//DTD SVG 1.1//EN" "http://www.w3.org/Graphics/SVG/1.1/DTD/svg11.dtd">
<svg version="1.1" id="Layer_1" xmlns="http://www.w3.org/2000/svg" xmlns:xlink="http://www.w3.org/1999/xlink" x="0px" y="0px"
	 width="640px" height="637.625px" viewBox="320 80 640 637.625" enable-background="new 320 80 640 637.625" xml:space="preserve">
<path fill="#FFFFFF" d="M960,400c0-176.75-143.25-320-320-320S320,223.25,320,400c0,150,103.375,276,242.75,310.625V497.75h-66V400
	h66v-42.125C562.75,249,612,198.5,719,198.5c20.25,0,55.25,4,69.625,8V295c-7.5-0.75-20.625-1.25-37-1.25
	c-52.5,0-72.75,19.875-72.75,71.5V400h104.5l-18,97.75H678.75v219.875C837.25,698.5,960,563.625,960,400z"/>
</svg>
